# xmcd
# 
# Track frame offsets:
#     150
#     20937
#     70052
#     122817
#     154847
#     174987
#     207425
#     233222
# 
# Disc length: 3709
# 
# Revision: 0
# Processed by: cddbd v1.5.2PL0 Copyright (c) Steve Scherf et al.
# Submitted via: BonkEnc v1.0.6
# 
DISCID=6d0e7b08
DTITLE=Lars Danielsson - Far North
DYEAR=1994
DGENRE=Contemporary Jazz
TTITLE0=Far North
TTITLE1=Eden
TTITLE2=Fuschia
TTITLE3=Climbing
TTITLE4=Einstein
TTITLE5=Ormen
TTITLE6=Twelve Tones Old
TTITLE7=Pacem
EXTD=
EXTT0=
EXTT1=
EXTT2=
EXTT3=
EXTT4=
EXTT5=
EXTT6=
EXTT7=
PLAYORDER=
